<svg width="20" height="20" viewBox="0 0 20 20" fill="none" xmlns="http://www.w3.org/2000/svg">
<path d="M19 10C19 11.2775 18.5408 12.8203 17.9007 14.1527C17.5848 14.8102 17.239 15.3865 16.9125 15.8255C16.5657 16.2916 16.308 16.5112 16.1935 16.5727C15.9791 16.6879 15.7442 16.8219 15.4885 16.9679C14.9043 17.3012 14.2113 17.6967 13.4039 18.0716C12.2568 18.6042 11.0616 19 10 19C7.23136 19 4.88145 17.2085 3.06004 15.1922C1.83064 13.5951 1 11.9741 1 10C1 7.82368 2.1172 6.14267 3.6618 4.41691C5.41916 2.45343 7.45962 1 10 1C11.0677 1 12.0793 1.41741 13.0842 2.02689C13.5845 2.33032 14.0623 2.66815 14.5369 3.00928C14.5876 3.04566 14.6384 3.08225 14.6893 3.11894C15.1032 3.41699 15.5266 3.7219 15.9283 3.973C16.5738 4.37644 17.3546 5.22922 17.978 6.36261C18.5952 7.48479 19 8.7779 19 10Z" fill="white" fill-opacity="0.5" stroke="#7E6579" stroke-width="2"/>
</svg>
