<?xml version="1.0" encoding="UTF-8"?>
<!DOCTYPE svg PUBLIC "-//W3C//DTD SVG 1.1//EN" "http://www.w3.org/Graphics/SVG/1.1/DTD/svg11.dtd">
<svg xmlns="http://www.w3.org/2000/svg" version="1.1" width="512px" height="512px" style="shape-rendering:geometricPrecision; text-rendering:geometricPrecision; image-rendering:optimizeQuality; fill-rule:evenodd; clip-rule:evenodd" xmlns:xlink="http://www.w3.org/1999/xlink">
<g><path style="opacity:0.976" fill="#030201" d="M 511.5,235.5 C 511.5,238.167 511.5,240.833 511.5,243.5C 483.67,308.48 435.337,349.646 366.5,367C 385.861,383.533 399.361,404.033 407,428.5C 408.227,432.591 407.394,436.091 404.5,439C 366.784,448.159 331.784,441.992 299.5,420.5C 290.829,441.643 277.829,459.809 260.5,475C 257.167,477 253.833,477 250.5,475C 233.171,459.809 220.171,441.643 211.5,420.5C 179.216,441.992 144.216,448.159 106.5,439C 103.606,436.091 102.773,432.591 104,428.5C 111.611,404.108 125.111,383.608 144.5,367C 75.6631,349.646 27.3298,308.48 -0.5,243.5C -0.5,240.833 -0.5,238.167 -0.5,235.5C 0.316435,233.856 1.64977,232.69 3.5,232C 17.6511,228.773 31.9844,226.939 46.5,226.5C 34.1438,200.551 27.9772,173.218 28,144.5C 28.7845,142.714 29.9512,141.214 31.5,140C 56.6082,141.028 80.2749,147.528 102.5,159.5C 102.45,137.119 105.283,115.119 111,93.5C 111.41,87.2944 114.577,83.6278 120.5,82.5C 144.434,87.9166 166.434,97.5833 186.5,111.5C 201.501,80.9964 222.834,55.8297 250.5,36C 253.833,34 257.167,34 260.5,36C 288.166,55.8297 309.499,80.9964 324.5,111.5C 344.566,97.5833 366.566,87.9166 390.5,82.5C 396.423,83.6278 399.59,87.2944 400,93.5C 405.717,115.119 408.55,137.119 408.5,159.5C 430.725,147.528 454.392,141.028 479.5,140C 482.616,142.4 483.949,145.567 483.5,149.5C 482.342,176.465 476.009,202.132 464.5,226.5C 477.944,227.014 491.277,228.514 504.5,231C 507.585,231.53 509.918,233.03 511.5,235.5 Z"/></g>
<g><path style="opacity:1" fill="#fb989d" d="M 266.5,61.5 C 246.911,76.5892 231.078,94.9225 219,116.5C 215.967,122.223 213.801,128.223 212.5,134.5C 208.036,130.537 203.702,126.37 199.5,122C 212.091,93.9118 230.758,70.7451 255.5,52.5C 259.501,55.1752 263.168,58.1752 266.5,61.5 Z"/></g>
<g><path style="opacity:1" fill="#fdb8b8" d="M 266.5,61.5 C 286.225,78.0715 301.225,98.2382 311.5,122C 308.296,124.869 305.463,128.035 303,131.5C 302.481,135.132 303.647,138.132 306.5,140.5C 302.472,144.859 298.472,149.193 294.5,153.5C 290.948,151.132 287.281,150.965 283.5,153C 280.277,157.958 276.944,162.791 273.5,167.5C 269.022,164.19 264.689,160.69 260.5,157C 257.167,155 253.833,155 250.5,157C 246.311,160.69 241.978,164.19 237.5,167.5C 229.898,155.97 221.564,144.97 212.5,134.5C 213.801,128.223 215.967,122.223 219,116.5C 231.078,94.9225 246.911,76.5892 266.5,61.5 Z"/></g>
<g><path style="opacity:1" fill="#fb7e84" d="M 141.5,105.5 C 134.081,141.774 136.748,177.274 149.5,212C 149.43,212.765 149.097,213.265 148.5,213.5C 142.287,212.114 136.287,210.114 130.5,207.5C 116.91,172.482 114.91,136.815 124.5,100.5C 130.474,101.158 136.141,102.825 141.5,105.5 Z"/></g>
<g><path style="opacity:1" fill="#fd999e" d="M 386.5,190.5 C 361.408,195.05 338.075,204.05 316.5,217.5C 307.389,203.659 297.056,190.659 285.5,178.5C 288.748,172.336 292.248,166.336 296,160.5C 296.609,157.935 296.109,155.601 294.5,153.5C 298.472,149.193 302.472,144.859 306.5,140.5C 309.649,140.789 312.649,140.289 315.5,139C 335.537,120.558 358.704,107.391 385,99.5C 392.124,120.965 394.124,142.965 391,165.5C 389.929,173.926 388.429,182.259 386.5,190.5 Z"/></g>
<g><path style="opacity:1" fill="#fd999e" d="M 141.5,105.5 C 178.769,119.139 206.769,143.473 225.5,178.5C 209.548,194.417 196.548,212.417 186.5,232.5C 174.578,224.539 161.911,218.206 148.5,213.5C 149.097,213.265 149.43,212.765 149.5,212C 136.748,177.274 134.081,141.774 141.5,105.5 Z"/></g>
<g><path style="opacity:1" fill="#fc7e84" d="M 43.5,155.5 C 65.8542,159.951 86.8542,167.951 106.5,179.5C 108.66,187.806 110.66,196.14 112.5,204.5C 103.994,204.366 95.4943,204.033 87,203.5C 82.7189,203.399 78.5523,203.899 74.5,205C 73.2986,205.903 72.4652,207.069 72,208.5C 71.5004,215.158 71.3337,221.825 71.5,228.5C 69.076,228.808 66.7427,228.474 64.5,227.5C 52.6368,204.911 45.6368,180.911 43.5,155.5 Z"/></g>
<g><path style="opacity:1" fill="#fcb7b7" d="M 464.5,155.5 C 465.5,155.5 466.5,155.5 467.5,155.5C 465.364,180.908 458.364,204.908 446.5,227.5C 444.257,228.474 441.924,228.808 439.5,228.5C 439.666,221.825 439.5,215.158 439,208.5C 438.535,207.069 437.701,205.903 436.5,205C 430.939,203.879 425.273,203.379 419.5,203.5C 412.483,203.634 405.483,203.967 398.5,204.5C 400.34,196.14 402.34,187.806 404.5,179.5C 423.278,168.137 443.278,160.137 464.5,155.5 Z"/></g>
<g><path style="opacity:1" fill="#e2626c" d="M 267.5,182.5 C 243.691,199.152 225.858,220.819 214,247.5C 213.187,249.436 212.687,251.436 212.5,253.5C 208.335,249.503 204.002,245.67 199.5,242C 212.03,213.962 230.697,190.795 255.5,172.5C 259.836,175.509 263.836,178.843 267.5,182.5 Z"/></g>
<g><path style="opacity:1" fill="#fd7f85" d="M 267.5,182.5 C 286.913,198.828 301.58,218.661 311.5,242C 284.755,263.93 266.089,291.43 255.5,324.5C 252.962,317.385 250.128,310.385 247,303.5C 244.695,301.07 241.862,300.07 238.5,300.5C 237.624,300.631 236.957,300.298 236.5,299.5C 234.108,294.8 231.775,290.133 229.5,285.5C 232.575,282.539 233.075,279.206 231,275.5C 225.539,267.58 219.372,260.247 212.5,253.5C 212.687,251.436 213.187,249.436 214,247.5C 225.858,220.819 243.691,199.152 267.5,182.5 Z"/></g>
<g><path style="opacity:1" fill="#fc7f84" d="M 386.5,190.5 C 384.509,196.138 382.509,201.805 380.5,207.5C 360.58,213.129 341.913,221.462 324.5,232.5C 321.061,227.957 318.394,222.957 316.5,217.5C 338.075,204.05 361.408,195.05 386.5,190.5 Z"/></g>
<g><path style="opacity:1" fill="#e4636d" d="M 229.5,285.5 C 231.775,290.133 234.108,294.8 236.5,299.5C 236.957,300.298 237.624,300.631 238.5,300.5C 235.498,302.02 233.831,304.52 233.5,308C 237.597,318.623 241.097,329.457 244,340.5C 246.243,349.702 247.41,359.036 247.5,368.5C 247.5,372.167 247.5,375.833 247.5,379.5C 244.167,379.5 240.833,379.5 237.5,379.5C 182.379,376.04 139.879,351.373 110,305.5C 94.5266,278.61 86.6933,249.61 86.5,218.5C 141.96,218.896 186.293,241.063 219.5,285C 222.79,286.735 226.123,286.901 229.5,285.5 Z"/></g>
<g><path style="opacity:1" fill="#fd999e" d="M 271.5,379.5 C 268.833,379.5 266.167,379.5 263.5,379.5C 263.5,375.167 263.5,370.833 263.5,366.5C 267.916,312.14 292.916,270.306 338.5,241C 365.091,225.638 393.757,218.138 424.5,218.5C 424.128,273.744 402.128,317.91 358.5,351C 332.132,368.4 303.132,377.9 271.5,379.5 Z"/></g>
<g><path style="opacity:1" fill="#fc989c" d="M 28.5,243.5 C 43.3839,242.129 58.3839,242.462 73.5,244.5C 77.0206,270.733 85.6873,295.066 99.5,317.5C 71.1201,299.121 49.4535,274.788 34.5,244.5C 32.604,243.534 30.604,243.201 28.5,243.5 Z"/></g>
<g><path style="opacity:1" fill="#fbb6b6" d="M 447.5,242.5 C 456.839,242.334 466.173,242.5 475.5,243C 481.607,243.175 487.607,244.008 493.5,245.5C 472.498,291.675 438.498,323.842 391.5,342C 416.717,314.895 432.05,282.895 437.5,246C 437.905,245.055 438.572,244.388 439.5,244C 442.365,243.817 445.031,243.317 447.5,242.5 Z"/></g>
<g><path style="opacity:1" fill="#fb7e84" d="M 28.5,243.5 C 30.604,243.201 32.604,243.534 34.5,244.5C 49.4535,274.788 71.1201,299.121 99.5,317.5C 105.789,325.872 112.456,334.039 119.5,342C 72.5267,323.868 38.5267,291.701 17.5,245.5C 20.9398,243.777 24.6065,243.11 28.5,243.5 Z"/></g>
<g><path style="opacity:1" fill="#93d4a2" d="M 159.5,374.5 C 170.453,378.637 181.453,382.804 192.5,387C 197.726,388.704 203.059,389.87 208.5,390.5C 208.666,394.846 208.499,399.179 208,403.5C 182.396,422.613 153.562,430.613 121.5,427.5C 125.313,414.873 131.48,403.539 140,393.5C 146.395,386.937 152.895,380.603 159.5,374.5 Z"/></g>
<g><path style="opacity:1" fill="#c9f19d" d="M 347.5,374.5 C 348.873,374.343 350.207,374.51 351.5,375C 369.401,388.388 382.068,405.554 389.5,426.5C 357.279,431.238 328.446,423.571 303,403.5C 302.501,399.179 302.334,394.846 302.5,390.5C 318.44,387.522 333.44,382.189 347.5,374.5 Z"/></g>
<g><path style="opacity:1" fill="#562529" d="M 247.5,368.5 C 248.483,372.298 248.817,376.298 248.5,380.5C 244.629,380.815 240.962,380.482 237.5,379.5C 240.833,379.5 244.167,379.5 247.5,379.5C 247.5,375.833 247.5,372.167 247.5,368.5 Z"/></g>
<g><path style="opacity:1" fill="#603a3c" d="M 263.5,366.5 C 263.5,370.833 263.5,375.167 263.5,379.5C 266.167,379.5 268.833,379.5 271.5,379.5C 268.713,380.477 265.713,380.81 262.5,380.5C 262.181,375.637 262.514,370.97 263.5,366.5 Z"/></g>
<g><path style="opacity:1" fill="#b0e29c" d="M 223.5,393.5 C 244.829,394.821 266.163,394.821 287.5,393.5C 285.344,419.146 274.677,440.479 255.5,457.5C 236.326,440.486 225.659,419.152 223.5,393.5 Z"/></g>
</svg>
