<svg width="20" height="20" viewBox="0 0 20 20" fill="none" xmlns="http://www.w3.org/2000/svg">
<path d="M19 10C19 11.2775 18.5408 12.8203 17.9007 14.1527C17.5848 14.8102 17.239 15.3865 16.9125 15.8255C16.5657 16.2916 16.308 16.5112 16.1935 16.5727C15.9791 16.6879 15.7442 16.8219 15.4885 16.9679C14.9043 17.3012 14.2113 17.6967 13.4039 18.0716C12.2568 18.6042 11.0616 19 10 19C7.23136 19 4.88145 17.2085 3.06004 15.1922C1.83064 13.5951 1 11.9741 1 10C1 7.82368 2.1172 6.14267 3.6618 4.41691C5.41916 2.45343 7.45962 1 10 1C11.0677 1 12.0793 1.41741 13.0842 2.02689C13.5845 2.33032 14.0623 2.66815 14.5369 3.00928C14.5876 3.04566 14.6384 3.08225 14.6893 3.11894C15.1032 3.41699 15.5266 3.7219 15.9283 3.973C16.5738 4.37644 17.3546 5.22922 17.978 6.36261C18.5952 7.48479 19 8.7779 19 10Z" fill="white" stroke="#7E6579" stroke-width="2"/>
<path d="M13 10C13 10.1093 12.978 10.3125 12.8993 10.6C12.8229 10.8793 12.7101 11.1755 12.5771 11.4523C12.4621 11.6918 12.35 11.8792 12.2643 12.0035C12.1722 12.0554 12.0859 12.1049 12.0021 12.153C11.7003 12.3261 11.4298 12.4813 11.0316 12.6662C10.4469 12.9376 10.1114 13 10 13C9.40434 13 8.6218 12.598 7.68116 11.5769C7.14549 10.8644 7 10.4192 7 10C7 9.61787 7.15193 9.18197 7.9854 8.25074C8.86293 7.2703 9.48686 7 10 7C10.0075 7 10.1674 7.00223 10.6059 7.26817C10.8186 7.39721 11.0389 7.55133 11.3214 7.75441C11.3491 7.77429 11.3784 7.79538 11.409 7.81747C11.6417 7.98529 11.9543 8.21069 12.26 8.40329C12.2712 8.41298 12.3095 8.44671 12.3687 8.51459C12.4652 8.62514 12.5781 8.78183 12.6839 8.97417C12.9105 9.38617 13 9.76548 13 10Z" stroke="#7E6579" stroke-width="6"/>
</svg>
