<svg width="17" height="17" viewBox="0 0 17 17" fill="none" xmlns="http://www.w3.org/2000/svg">
<path fill-rule="evenodd" clip-rule="evenodd" d="M0.929612 0.928909C1.32014 0.538384 1.97811 0.563195 2.39924 0.984325L16.1247 14.7098C16.5458 15.1309 16.5706 15.7889 16.1801 16.1794C15.7896 16.5699 15.1316 16.5451 14.7105 16.124L0.985029 2.39854C0.563899 1.97741 0.539088 1.31943 0.929612 0.928909Z" fill="#5B4A58"/>
<path fill-rule="evenodd" clip-rule="evenodd" d="M0.929763 16.071C0.539239 15.6805 0.557817 15.0287 0.971258 14.6153L14.4461 1.14046C14.8595 0.727014 15.5113 0.708436 15.9018 1.09896C16.2923 1.48948 16.2737 2.14123 15.8603 2.55467L2.38547 16.0295C1.97203 16.4429 1.32029 16.4615 0.929763 16.071Z" fill="#5B4A58"/>
</svg>
